<svg
          xmlns="http://www.w3.org/2000/svg"
          width="100"
          height="100"
          fill="currentColor"
          stroke-width="1"
          viewBox="0 0 100 100"
           <style>
    path {
      fill: rgb(255 255 255);
    }

    rect {
      fill: rgb(17 24 39);
    }

    @media (prefers-color-scheme: dark) {
      path {
        fill: rgb(17 24 39);
      }

      rect {
        fill: rgb(255 255 255);
      }
    }
  </style>
        >
          <path d="M20.553 3.105l-6 3C11.225 7.77 9.274 9.953 8.755 12.6c-.738 3.751 1.992 7.958 2.861 8.321A.985.985 0 0012 21c6.682 0 11-3.532 11-9 0-6.691-.9-8.318-1.293-8.707a1 1 0 00-1.154-.188zm-7.6 15.86a8.594 8.594 0 015.44-8.046 1 1 0 10-.788-1.838 10.363 10.363 0 00-6.393 7.667 6.59 6.59 0 01-.494-3.777c.4-2 1.989-3.706 4.728-5.076l5.03-2.515A29.2 29.2 0 0121 12c0 4.063-3.06 6.67-8.046 6.965zM3.523 5.38A29.2 29.2 0 003 12a6.386 6.386 0 004.366 6.212 1 1 0 11-.732 1.861A8.377 8.377 0 011 12c0-6.691.9-8.318 1.293-8.707a1 1 0 011.154-.188l6 3A1 1 0 018.553 7.9z"></path>
        </svg>
